<svg xmlns="http://www.w3.org/2000/svg" viewBox="0 0 96 96"><defs><linearGradient id="silver" x1=".15" y1="0" x2=".8" y2="1"><stop stop-color="#fff"/><stop offset=".22" stop-color="#d9e4ee"/><stop offset=".48" stop-color="#798ba1"/><stop offset=".6" stop-color="#dae7f2"/><stop offset="1" stop-color="#596c87"/></linearGradient><linearGradient id="blue" x1=".2" y1="0" x2=".8" y2="1"><stop stop-color="#b8f4ff"/><stop offset=".35" stop-color="#51c5f0"/><stop offset="1" stop-color="#1766ac"/></linearGradient><linearGradient id="red" x1=".2" y1="0" x2=".8" y2="1"><stop stop-color="#ffb3c1"/><stop offset=".35" stop-color="#ff476d"/><stop offset="1" stop-color="#a71248"/></linearGradient><linearGradient id="gold" x1="0" y1="0" x2=".8" y2="1"><stop stop-color="#fff5c1"/><stop offset=".35" stop-color="#efc567"/><stop offset="1" stop-color="#ac6922"/></linearGradient><linearGradient id="purple" x1="0" y1="0" x2="1" y2="1"><stop stop-color="#ede1ff"/><stop offset=".35" stop-color="#b99afa"/><stop offset="1" stop-color="#6450b5"/></linearGradient><linearGradient id="green" x1="0" y1="0" x2="1" y2="1"><stop stop-color="#d0ffee"/><stop offset=".35" stop-color="#71dac6"/><stop offset="1" stop-color="#207c79"/></linearGradient><linearGradient id="screen" x1="0" y1="0" x2="1" y2="1"><stop stop-color="#2f637b"/><stop offset=".55" stop-color="#0b213d"/><stop offset="1" stop-color="#030c1c"/></linearGradient><linearGradient id="shine" x2=".3" y2="1"><stop stop-color="#fff" stop-opacity=".65"/><stop offset="1" stop-color="#fff" stop-opacity="0"/></linearGradient><filter id="shadow" x="-30%" y="-30%" width="160%" height="180%"><feDropShadow dx="0" dy="3" stdDeviation="2" flood-color="#000" flood-opacity=".45"/></filter></defs><g filter="url(#shadow)"><rect x="9" y="20" width="78" height="53" rx="17" fill="#73092c"/><rect x="9" y="16" width="78" height="53" rx="17" fill="url(#red)" stroke="#ffa2b8"/><path d="M39 28l24 15-24 15Z" fill="#7e1c3c" transform="translate(0 2)"/><path d="M39 27l24 15-24 15Z" fill="url(#silver)"/><path d="M14 33q0-12 13-12h42q13 0 13 10Q51 39 14 33" fill="url(#shine)"/></g></svg>