<svg xmlns="http://www.w3.org/2000/svg" viewBox="0 0 96 96"><defs><linearGradient id="silver" x1=".15" y1="0" x2=".8" y2="1"><stop stop-color="#fff"/><stop offset=".22" stop-color="#d9e4ee"/><stop offset=".48" stop-color="#798ba1"/><stop offset=".6" stop-color="#dae7f2"/><stop offset="1" stop-color="#596c87"/></linearGradient><linearGradient id="blue" x1=".2" y1="0" x2=".8" y2="1"><stop stop-color="#b8f4ff"/><stop offset=".35" stop-color="#51c5f0"/><stop offset="1" stop-color="#1766ac"/></linearGradient><linearGradient id="red" x1=".2" y1="0" x2=".8" y2="1"><stop stop-color="#ffb3c1"/><stop offset=".35" stop-color="#ff476d"/><stop offset="1" stop-color="#a71248"/></linearGradient><linearGradient id="gold" x1="0" y1="0" x2=".8" y2="1"><stop stop-color="#fff5c1"/><stop offset=".35" stop-color="#efc567"/><stop offset="1" stop-color="#ac6922"/></linearGradient><linearGradient id="purple" x1="0" y1="0" x2="1" y2="1"><stop stop-color="#ede1ff"/><stop offset=".35" stop-color="#b99afa"/><stop offset="1" stop-color="#6450b5"/></linearGradient><linearGradient id="green" x1="0" y1="0" x2="1" y2="1"><stop stop-color="#d0ffee"/><stop offset=".35" stop-color="#71dac6"/><stop offset="1" stop-color="#207c79"/></linearGradient><linearGradient id="screen" x1="0" y1="0" x2="1" y2="1"><stop stop-color="#2f637b"/><stop offset=".55" stop-color="#0b213d"/><stop offset="1" stop-color="#030c1c"/></linearGradient><linearGradient id="shine" x2=".3" y2="1"><stop stop-color="#fff" stop-opacity=".65"/><stop offset="1" stop-color="#fff" stop-opacity="0"/></linearGradient><filter id="shadow" x="-30%" y="-30%" width="160%" height="180%"><feDropShadow dx="0" dy="3" stdDeviation="2" flood-color="#000" flood-opacity=".45"/></filter></defs><g filter="url(#shadow)"><path d="M32 80h33l-5-5H38Z" fill="#41506a"/><path d="M45 65h8v12h-8Z" fill="url(#silver)"/><rect x="8" y="16" width="80" height="53" rx="10" fill="#415269"/><rect x="8" y="12" width="80" height="53" rx="10" fill="url(#silver)"/><rect x="13" y="17" width="70" height="42" rx="6" fill="url(#screen)"/><path d="M16 48Q38 18 80 23v10Q45 29 16 53Z" fill="url(#blue)" opacity=".8"/><path d="M16 19h49L16 40Z" fill="url(#shine)"/><circle cx="48" cy="62" r="1" fill="#b8f9ff"/></g></svg>